<svg xmlns="http://www.w3.org/2000/svg" width="900" height="500" viewBox="0 0 900 500">
<rect width="900" height="500" fill="#f0f4f8" />
<rect x="1" y="1" width="898" height="498" rx="8" fill="white" stroke="#e2e8f0" stroke-width="1" />
<defs><marker id="arr" markerWidth="6" markerHeight="6" refX="3" refY="3" orient="auto"><path d="M0,0 L6,3 L0,6" fill="none" stroke="#4a9eff" stroke-width="1"/></marker></defs>
<rect x="40" y="70" width="280" height="205" rx="4" fill="#f8fafc" stroke="#1e293b" stroke-width="1.5" />
<circle cx="180" cy="172.5" r="102.5" fill="#eef2ff" stroke="#4a9eff" stroke-width="1.5" />
<circle cx="180" cy="172.5" r="2" fill="#e0e7ff" stroke="#1e293b" stroke-width="1.5" />
<line x1="40" y1="70" x2="40" y2="52" stroke="#4a9eff" stroke-width="1" stroke-dasharray="3,2" />
<line x1="320" y1="70" x2="320" y2="52" stroke="#4a9eff" stroke-width="1" stroke-dasharray="3,2" />
<line x1="40" y1="52" x2="320" y2="52" stroke="#4a9eff" stroke-width="1.2" marker-end="url(#arr)" marker-start="url(#arr)" />
<text x="180" y="66" text-anchor="middle" font-size="11" font-family="Inter,Arial,sans-serif" fill="#4a9eff">465 mm</text>
<line x1="40" y1="70" x2="22" y2="70" stroke="#4a9eff" stroke-width="1" stroke-dasharray="3,2" />
<line x1="40" y1="275" x2="22" y2="275" stroke="#4a9eff" stroke-width="1" stroke-dasharray="3,2" />
<line x1="22" y1="70" x2="22" y2="275" stroke="#4a9eff" stroke-width="1.2" marker-end="url(#arr)" marker-start="url(#arr)" />
<text x="36" y="176.5" font-size="11" font-family="Inter,Arial,sans-serif" fill="#4a9eff">340 mm</text>
<text x="180" y="176.5" font-size="16" font-family="Inter,Arial,sans-serif" fill="#4a9eff" >⊙</text>
<text x="180" y="64" font-size="10" font-family="Inter,Arial,sans-serif" fill="#6b7280" font-weight="600">TOP</text>
<rect x="40" y="335" width="280" height="132" rx="4" fill="#f8fafc" stroke="#1e293b" stroke-width="1.5" />
<line x1="40" y1="335" x2="40" y2="317" stroke="#4a9eff" stroke-width="1" stroke-dasharray="3,2" />
<line x1="320" y1="335" x2="320" y2="317" stroke="#4a9eff" stroke-width="1" stroke-dasharray="3,2" />
<line x1="40" y1="317" x2="320" y2="317" stroke="#4a9eff" stroke-width="1.2" marker-end="url(#arr)" marker-start="url(#arr)" />
<text x="180" y="331" text-anchor="middle" font-size="11" font-family="Inter,Arial,sans-serif" fill="#4a9eff">465 mm</text>
<line x1="40" y1="467" x2="22" y2="467" stroke="#4a9eff" stroke-width="1" stroke-dasharray="3,2" />
<line x1="40" y1="335" x2="22" y2="335" stroke="#4a9eff" stroke-width="1" stroke-dasharray="3,2" />
<line x1="22" y1="467" x2="22" y2="335" stroke="#4a9eff" stroke-width="1.2" marker-end="url(#arr)" marker-start="url(#arr)" />
<text x="36" y="405" font-size="11" font-family="Inter,Arial,sans-serif" fill="#4a9eff">220 mm</text>
<text x="180" y="329" font-size="10" font-family="Inter,Arial,sans-serif" fill="#6b7280" font-weight="600">FRONT</text>
<circle cx="482.5" cy="136" r="66" fill="#eef2ff" stroke="#4a9eff" stroke-width="1.5" />
<line x1="380" y1="70" x2="380" y2="52" stroke="#4a9eff" stroke-width="1" stroke-dasharray="3,2" />
<line x1="585" y1="70" x2="585" y2="52" stroke="#4a9eff" stroke-width="1" stroke-dasharray="3,2" />
<line x1="380" y1="52" x2="585" y2="52" stroke="#4a9eff" stroke-width="1.2" marker-end="url(#arr)" marker-start="url(#arr)" />
<text x="482.5" y="66" text-anchor="middle" font-size="11" font-family="Inter,Arial,sans-serif" fill="#4a9eff">340 mm</text>
<line x1="585" y1="70" x2="599" y2="70" stroke="#4a9eff" stroke-width="1" stroke-dasharray="3,2" />
<line x1="585" y1="202" x2="599" y2="202" stroke="#4a9eff" stroke-width="1" stroke-dasharray="3,2" />
<line x1="599" y1="70" x2="599" y2="202" stroke="#4a9eff" stroke-width="1.2" marker-end="url(#arr)" marker-start="url(#arr)" />
<text x="613" y="140" font-size="11" font-family="Inter,Arial,sans-serif" fill="#4a9eff">220 mm</text>
<text x="482.5" y="64" font-size="10" font-family="Inter,Arial,sans-serif" fill="#6b7280" font-weight="600">SIDE</text>
<text x="625" y="70" font-size="14" font-family="Inter,Arial,sans-serif" fill="#0f172a" font-weight="600">UARE CAD — Execution Preview</text>
<text x="625" y="92" font-size="11" font-family="Inter,Arial,sans-serif" fill="#6b7280" >ID: cad-1776858763438-5a7c8e38</text>
<text x="625" y="120" font-size="12" font-family="Inter,Arial,sans-serif" fill="#1e293b" font-weight="600">Regression-engine_block</text>
<text x="625" y="140" font-size="11" font-family="Inter,Arial,sans-serif" fill="#374151" >Parts: 1</text>
<text x="625" y="158" font-size="11" font-family="Inter,Arial,sans-serif" fill="#6b7280" >L × W × H  (mm)</text>
<text x="625" y="174" font-size="13" font-family="Inter,Arial,sans-serif" fill="#1e40af" font-weight="600">465 × 340 × 220</text>
<text x="625" y="194" font-size="11" font-family="Inter,Arial,sans-serif" fill="#374151" >Bore/Hole: Ø8 mm</text>
<text x="625" y="450" font-size="10" font-family="Inter,Arial,sans-serif" fill="#9ca3af" >⚠ Envelope preview — kernel geometry</text>
<text x="625" y="466" font-size="10" font-family="Inter,Arial,sans-serif" fill="#9ca3af" >in assembly_kernel.stl / assembly.step</text>
</svg>