<svg xmlns="http://www.w3.org/2000/svg" width="900" height="500" viewBox="0 0 900 500">
<rect width="900" height="500" fill="#f0f4f8" />
<rect x="1" y="1" width="898" height="498" rx="8" fill="white" stroke="#e2e8f0" stroke-width="1" />
<defs><marker id="arr" markerWidth="6" markerHeight="6" refX="3" refY="3" orient="auto"><path d="M0,0 L6,3 L0,6" fill="none" stroke="#4a9eff" stroke-width="1"/></marker></defs>
<rect x="40" y="70" width="280" height="57" rx="4" fill="#f8fafc" stroke="#1e293b" stroke-width="1.5" />
<circle cx="180" cy="98.5" r="28.5" fill="#eef2ff" stroke="#4a9eff" stroke-width="1.5" />
<circle cx="180" cy="98.5" r="3" fill="#e0e7ff" stroke="#1e293b" stroke-width="1.5" />
<line x1="40" y1="70" x2="40" y2="52" stroke="#4a9eff" stroke-width="1" stroke-dasharray="3,2" />
<line x1="320" y1="70" x2="320" y2="52" stroke="#4a9eff" stroke-width="1" stroke-dasharray="3,2" />
<line x1="40" y1="52" x2="320" y2="52" stroke="#4a9eff" stroke-width="1.2" marker-end="url(#arr)" marker-start="url(#arr)" />
<text x="180" y="66" text-anchor="middle" font-size="11" font-family="Inter,Arial,sans-serif" fill="#4a9eff">380 mm</text>
<line x1="40" y1="70" x2="22" y2="70" stroke="#4a9eff" stroke-width="1" stroke-dasharray="3,2" />
<line x1="40" y1="127" x2="22" y2="127" stroke="#4a9eff" stroke-width="1" stroke-dasharray="3,2" />
<line x1="22" y1="70" x2="22" y2="127" stroke="#4a9eff" stroke-width="1.2" marker-end="url(#arr)" marker-start="url(#arr)" />
<text x="36" y="102.5" font-size="11" font-family="Inter,Arial,sans-serif" fill="#4a9eff">78 mm</text>
<text x="180" y="102.5" font-size="16" font-family="Inter,Arial,sans-serif" fill="#4a9eff" >⊙</text>
<text x="180" y="64" font-size="10" font-family="Inter,Arial,sans-serif" fill="#6b7280" font-weight="600">TOP</text>
<rect x="40" y="187" width="280" height="162" rx="4" fill="#f8fafc" stroke="#1e293b" stroke-width="1.5" />
<line x1="40" y1="187" x2="40" y2="169" stroke="#4a9eff" stroke-width="1" stroke-dasharray="3,2" />
<line x1="320" y1="187" x2="320" y2="169" stroke="#4a9eff" stroke-width="1" stroke-dasharray="3,2" />
<line x1="40" y1="169" x2="320" y2="169" stroke="#4a9eff" stroke-width="1.2" marker-end="url(#arr)" marker-start="url(#arr)" />
<text x="180" y="183" text-anchor="middle" font-size="11" font-family="Inter,Arial,sans-serif" fill="#4a9eff">380 mm</text>
<line x1="40" y1="349" x2="22" y2="349" stroke="#4a9eff" stroke-width="1" stroke-dasharray="3,2" />
<line x1="40" y1="187" x2="22" y2="187" stroke="#4a9eff" stroke-width="1" stroke-dasharray="3,2" />
<line x1="22" y1="349" x2="22" y2="187" stroke="#4a9eff" stroke-width="1.2" marker-end="url(#arr)" marker-start="url(#arr)" />
<text x="36" y="272" font-size="11" font-family="Inter,Arial,sans-serif" fill="#4a9eff">220 mm</text>
<text x="180" y="181" font-size="10" font-family="Inter,Arial,sans-serif" fill="#6b7280" font-weight="600">FRONT</text>
<circle cx="408.5" cy="151" r="28.5" fill="#eef2ff" stroke="#4a9eff" stroke-width="1.5" />
<line x1="380" y1="70" x2="380" y2="52" stroke="#4a9eff" stroke-width="1" stroke-dasharray="3,2" />
<line x1="437" y1="70" x2="437" y2="52" stroke="#4a9eff" stroke-width="1" stroke-dasharray="3,2" />
<line x1="380" y1="52" x2="437" y2="52" stroke="#4a9eff" stroke-width="1.2" marker-end="url(#arr)" marker-start="url(#arr)" />
<text x="408.5" y="66" text-anchor="middle" font-size="11" font-family="Inter,Arial,sans-serif" fill="#4a9eff">78 mm</text>
<line x1="437" y1="70" x2="451" y2="70" stroke="#4a9eff" stroke-width="1" stroke-dasharray="3,2" />
<line x1="437" y1="232" x2="451" y2="232" stroke="#4a9eff" stroke-width="1" stroke-dasharray="3,2" />
<line x1="451" y1="70" x2="451" y2="232" stroke="#4a9eff" stroke-width="1.2" marker-end="url(#arr)" marker-start="url(#arr)" />
<text x="465" y="155" font-size="11" font-family="Inter,Arial,sans-serif" fill="#4a9eff">220 mm</text>
<text x="408.5" y="64" font-size="10" font-family="Inter,Arial,sans-serif" fill="#6b7280" font-weight="600">SIDE</text>
<text x="477" y="70" font-size="14" font-family="Inter,Arial,sans-serif" fill="#0f172a" font-weight="600">UARE CAD — Execution Preview</text>
<text x="477" y="92" font-size="11" font-family="Inter,Arial,sans-serif" fill="#6b7280" >ID: cad-1776858896178-602f7ba3</text>
<text x="477" y="120" font-size="12" font-family="Inter,Arial,sans-serif" fill="#1e293b" font-weight="600">Regression-cylinder_head</text>
<text x="477" y="140" font-size="11" font-family="Inter,Arial,sans-serif" fill="#374151" >Parts: 1</text>
<text x="477" y="158" font-size="11" font-family="Inter,Arial,sans-serif" fill="#6b7280" >L × W × H  (mm)</text>
<text x="477" y="174" font-size="13" font-family="Inter,Arial,sans-serif" fill="#1e40af" font-weight="600">380 × 78 × 220</text>
<text x="477" y="194" font-size="11" font-family="Inter,Arial,sans-serif" fill="#374151" >Bore/Hole: Ø8 mm</text>
<text x="477" y="450" font-size="10" font-family="Inter,Arial,sans-serif" fill="#9ca3af" >⚠ Envelope preview — kernel geometry</text>
<text x="477" y="466" font-size="10" font-family="Inter,Arial,sans-serif" fill="#9ca3af" >in assembly_kernel.stl / assembly.step</text>
</svg>