<svg xmlns="http://www.w3.org/2000/svg" width="900" height="500" viewBox="0 0 900 500">
<rect width="900" height="500" fill="#f0f4f8" />
<rect x="1" y="1" width="898" height="498" rx="8" fill="white" stroke="#e2e8f0" stroke-width="1" />
<defs><marker id="arr" markerWidth="6" markerHeight="6" refX="3" refY="3" orient="auto"><path d="M0,0 L6,3 L0,6" fill="none" stroke="#4a9eff" stroke-width="1"/></marker></defs>
<rect x="40" y="70" width="280" height="93" rx="4" fill="#f8fafc" stroke="#1e293b" stroke-width="1.5" />
<line x1="40" y1="70" x2="40" y2="52" stroke="#4a9eff" stroke-width="1" stroke-dasharray="3,2" />
<line x1="320" y1="70" x2="320" y2="52" stroke="#4a9eff" stroke-width="1" stroke-dasharray="3,2" />
<line x1="40" y1="52" x2="320" y2="52" stroke="#4a9eff" stroke-width="1.2" marker-end="url(#arr)" marker-start="url(#arr)" />
<text x="180" y="66" text-anchor="middle" font-size="11" font-family="Inter,Arial,sans-serif" fill="#4a9eff">120 mm</text>
<line x1="40" y1="70" x2="22" y2="70" stroke="#4a9eff" stroke-width="1" stroke-dasharray="3,2" />
<line x1="40" y1="163" x2="22" y2="163" stroke="#4a9eff" stroke-width="1" stroke-dasharray="3,2" />
<line x1="22" y1="70" x2="22" y2="163" stroke="#4a9eff" stroke-width="1.2" marker-end="url(#arr)" marker-start="url(#arr)" />
<text x="36" y="120.5" font-size="11" font-family="Inter,Arial,sans-serif" fill="#4a9eff">40 mm</text>
<text x="180" y="120.5" font-size="16" font-family="Inter,Arial,sans-serif" fill="#4a9eff" ></text>
<text x="180" y="64" font-size="10" font-family="Inter,Arial,sans-serif" fill="#6b7280" font-weight="600">TOP</text>
<rect x="40" y="223" width="280" height="70" rx="4" fill="#f8fafc" stroke="#1e293b" stroke-width="1.5" />
<line x1="96" y1="223" x2="96" y2="293" stroke="#1e293b" stroke-width="1.5" />
<line x1="264" y1="223" x2="264" y2="293" stroke="#1e293b" stroke-width="1.5" />
<line x1="40" y1="223" x2="40" y2="205" stroke="#4a9eff" stroke-width="1" stroke-dasharray="3,2" />
<line x1="320" y1="223" x2="320" y2="205" stroke="#4a9eff" stroke-width="1" stroke-dasharray="3,2" />
<line x1="40" y1="205" x2="320" y2="205" stroke="#4a9eff" stroke-width="1.2" marker-end="url(#arr)" marker-start="url(#arr)" />
<text x="180" y="219" text-anchor="middle" font-size="11" font-family="Inter,Arial,sans-serif" fill="#4a9eff">120 mm</text>
<line x1="40" y1="293" x2="22" y2="293" stroke="#4a9eff" stroke-width="1" stroke-dasharray="3,2" />
<line x1="40" y1="223" x2="22" y2="223" stroke="#4a9eff" stroke-width="1" stroke-dasharray="3,2" />
<line x1="22" y1="293" x2="22" y2="223" stroke="#4a9eff" stroke-width="1.2" marker-end="url(#arr)" marker-start="url(#arr)" />
<text x="36" y="262" font-size="11" font-family="Inter,Arial,sans-serif" fill="#4a9eff">30 mm</text>
<text x="180" y="217" font-size="10" font-family="Inter,Arial,sans-serif" fill="#6b7280" font-weight="600">FRONT</text>
<rect x="380" y="70" width="93" height="70" rx="4" fill="#f8fafc" stroke="#1e293b" stroke-width="1.5" />
<line x1="380" y1="70" x2="380" y2="52" stroke="#4a9eff" stroke-width="1" stroke-dasharray="3,2" />
<line x1="473" y1="70" x2="473" y2="52" stroke="#4a9eff" stroke-width="1" stroke-dasharray="3,2" />
<line x1="380" y1="52" x2="473" y2="52" stroke="#4a9eff" stroke-width="1.2" marker-end="url(#arr)" marker-start="url(#arr)" />
<text x="426.5" y="66" text-anchor="middle" font-size="11" font-family="Inter,Arial,sans-serif" fill="#4a9eff">40 mm</text>
<line x1="473" y1="70" x2="487" y2="70" stroke="#4a9eff" stroke-width="1" stroke-dasharray="3,2" />
<line x1="473" y1="140" x2="487" y2="140" stroke="#4a9eff" stroke-width="1" stroke-dasharray="3,2" />
<line x1="487" y1="70" x2="487" y2="140" stroke="#4a9eff" stroke-width="1.2" marker-end="url(#arr)" marker-start="url(#arr)" />
<text x="501" y="109" font-size="11" font-family="Inter,Arial,sans-serif" fill="#4a9eff">30 mm</text>
<text x="426.5" y="64" font-size="10" font-family="Inter,Arial,sans-serif" fill="#6b7280" font-weight="600">SIDE</text>
<text x="513" y="70" font-size="14" font-family="Inter,Arial,sans-serif" fill="#0f172a" font-weight="600">UARE CAD — Execution Preview</text>
<text x="513" y="92" font-size="11" font-family="Inter,Arial,sans-serif" fill="#6b7280" >ID: cad-1776859786102-811cadc2</text>
<text x="513" y="120" font-size="12" font-family="Inter,Arial,sans-serif" fill="#1e293b" font-weight="600">Main control PCB</text>
<text x="513" y="140" font-size="11" font-family="Inter,Arial,sans-serif" fill="#374151" >Parts: 7</text>
<text x="513" y="158" font-size="11" font-family="Inter,Arial,sans-serif" fill="#6b7280" >L × W × H  (mm)</text>
<text x="513" y="174" font-size="13" font-family="Inter,Arial,sans-serif" fill="#1e40af" font-weight="600">120 × 40 × 30</text>
<text x="513" y="450" font-size="10" font-family="Inter,Arial,sans-serif" fill="#9ca3af" >⚠ Envelope preview — kernel geometry</text>
<text x="513" y="466" font-size="10" font-family="Inter,Arial,sans-serif" fill="#9ca3af" >in assembly_kernel.stl / assembly.step</text>
</svg>